<mxfile host="app.diagrams.net" agent="Mozilla/5.0 (Macintosh; Intel Mac OS X 10_15_7) AppleWebKit/537.36 (KHTML, like Gecko) Chrome/132.0.0.0 Safari/537.36" version="26.0.11">
  <diagram name="Page-1" id="RhQ8RjkBuqXpBPpfB_7d">
    <mxGraphModel dx="860" dy="561" grid="1" gridSize="10" guides="1" tooltips="1" connect="1" arrows="1" fold="1" page="1" pageScale="1" pageWidth="850" pageHeight="1100" math="0" shadow="0">
      <root>
        <mxCell id="0" />
        <mxCell id="1" parent="0" />
        <mxCell id="zsEX0Q7mN0mPJ752kj0L-2" value="Street" style="whiteSpace=wrap;html=1;align=center;" vertex="1" parent="1">
          <mxGeometry x="180" y="120" width="100" height="40" as="geometry" />
        </mxCell>
        <mxCell id="zsEX0Q7mN0mPJ752kj0L-3" value="City" style="whiteSpace=wrap;html=1;align=center;" vertex="1" parent="1">
          <mxGeometry x="280" y="120" width="100" height="40" as="geometry" />
        </mxCell>
        <mxCell id="zsEX0Q7mN0mPJ752kj0L-4" value="&lt;u&gt;Name&lt;/u&gt;" style="whiteSpace=wrap;html=1;align=center;" vertex="1" parent="1">
          <mxGeometry x="80" y="120" width="100" height="40" as="geometry" />
        </mxCell>
        <mxCell id="zsEX0Q7mN0mPJ752kj0L-6" value="Person" style="text;align=center;fontStyle=1;verticalAlign=middle;spacingLeft=3;spacingRight=3;strokeColor=none;rotatable=0;points=[[0,0.5],[1,0.5]];portConstraint=eastwest;html=1;strokeWidth=1;fontSize=16;" vertex="1" parent="1">
          <mxGeometry x="80" y="80" width="100" height="30" as="geometry" />
        </mxCell>
        <mxCell id="zsEX0Q7mN0mPJ752kj0L-7" value="&lt;u&gt;Name&lt;/u&gt;" style="whiteSpace=wrap;html=1;align=center;" vertex="1" parent="1">
          <mxGeometry x="80" y="240" width="100" height="40" as="geometry" />
        </mxCell>
        <mxCell id="zsEX0Q7mN0mPJ752kj0L-8" value="Credit-Rating" style="whiteSpace=wrap;html=1;align=center;" vertex="1" parent="1">
          <mxGeometry x="180" y="240" width="100" height="40" as="geometry" />
        </mxCell>
        <mxCell id="zsEX0Q7mN0mPJ752kj0L-9" value="&lt;u&gt;Name&lt;/u&gt;" style="whiteSpace=wrap;html=1;align=center;" vertex="1" parent="1">
          <mxGeometry x="360" y="240" width="100" height="40" as="geometry" />
        </mxCell>
        <mxCell id="zsEX0Q7mN0mPJ752kj0L-10" value="Salary" style="whiteSpace=wrap;html=1;align=center;" vertex="1" parent="1">
          <mxGeometry x="460" y="240" width="100" height="40" as="geometry" />
        </mxCell>
      </root>
    </mxGraphModel>
  </diagram>
</mxfile>
